<?xml version="1.0" encoding="UTF-8" standalone="no"?><svg xmlns="http://www.w3.org/2000/svg" xmlns:xlink="http://www.w3.org/1999/xlink" contentScriptType="application/ecmascript" contentStyleType="text/css" height="428px" preserveAspectRatio="none" style="width:847px;height:428px;background:#777777;" version="1.1" viewBox="0 0 847 428" width="847px" zoomAndPan="magnify"><defs><filter height="300%" id="f1dlh5269xeb93" width="300%" x="-1" y="-1"><feGaussianBlur result="blurOut" stdDeviation="2.0"/><feColorMatrix in="blurOut" result="blurOut2" type="matrix" values="0 0 0 0 0 0 0 0 0 0 0 0 0 0 0 0 0 0 .4 0"/><feOffset dx="4.0" dy="4.0" in="blurOut2" result="blurOut3"/><feBlend in="SourceGraphic" in2="blurOut3" mode="normal"/></filter></defs><g><!--MD5=[1ca7c43f6dcebda93c2fc8bba50dc0f3]
class MyClass--><rect codeLine="6" fill="#2E2E2E" filter="url(#f1dlh5269xeb93)" height="97.3438" id="MyClass" style="stroke:#1B1B1B;stroke-width:1.5;" width="83" x="628.5" y="7"/><ellipse cx="642.75" cy="20" fill="#1A66C2" rx="8" ry="8" style="stroke:#1B1B1B;stroke-width:1.0;"/><path d="M643.3906,24.1563 Q642.5,24.1563 641.7422,23.8906 Q640.9844,23.625 640.4375,23.1094 Q639.9063,22.5938 639.6016,21.8125 Q639.2969,21.0313 639.2969,20.0156 Q639.2969,19.0625 639.5859,18.2891 Q639.875,17.5156 640.4219,16.9531 Q640.9375,16.4219 641.7109,16.1328 Q642.4844,15.8438 643.3906,15.8438 Q643.8906,15.8438 644.2969,15.8984 Q644.7031,15.9531 645.0469,16.0469 Q645.4063,16.1563 645.7031,16.2813 Q646,16.4063 646.2188,16.5156 L646.2188,18.4531 L645.9844,18.4531 Q645.8281,18.3281 645.6016,18.1484 Q645.375,17.9688 645.0781,17.7969 Q644.7813,17.625 644.4375,17.5078 Q644.0938,17.3906 643.7031,17.3906 Q643.2656,17.3906 642.875,17.5234 Q642.4844,17.6563 642.1563,17.9844 Q641.8438,18.2813 641.6484,18.7891 Q641.4531,19.2969 641.4531,20.0156 Q641.4531,20.7656 641.6641,21.2734 Q641.875,21.7813 642.1875,22.0625 Q642.5156,22.3594 642.9219,22.4844 Q643.3281,22.6094 643.7188,22.6094 Q644.0938,22.6094 644.4609,22.5 Q644.8281,22.3906 645.1406,22.1875 Q645.4063,22.0469 645.6328,21.8672 Q645.8594,21.6875 646,21.5625 L646.2188,21.5625 L646.2188,23.4688 Q645.9219,23.6094 645.6484,23.7266 Q645.375,23.8438 645.0625,23.9219 Q644.6719,24.0313 644.3281,24.0938 Q643.9844,24.1563 643.3906,24.1563 Z " fill="#000000"/><text fill="#FFFFFF" font-family="Verdana" font-size="11" lengthAdjust="spacingAndGlyphs" textLength="52" x="654.25" y="24.3748">MyClass</text><line style="stroke:#1B1B1B;stroke-width:1.5;" x1="629.5" x2="710.5" y1="33" y2="33"/><text fill="#AAAAAA" font-family="sans-serif" font-size="11" lengthAdjust="spacingAndGlyphs" textLength="50" x="634.5" y="48.4189">int number</text><line style="stroke:#1B1B1B;stroke-width:1.5;" x1="629.5" x2="710.5" y1="54.8359" y2="54.8359"/><text fill="#AAAAAA" font-family="sans-serif" font-size="11" lengthAdjust="spacingAndGlyphs" textLength="63" x="634.5" y="70.2549">methodOne()</text><text fill="#AAAAAA" font-family="sans-serif" font-size="11" lengthAdjust="spacingAndGlyphs" textLength="65" x="634.5" y="84.0908">methodTwo()</text><text fill="#AAAAAA" font-family="sans-serif" font-size="11" lengthAdjust="spacingAndGlyphs" textLength="71" x="634.5" y="97.9268">methodThree()</text><!--MD5=[86391559dbf3a64f3bb59df7de02fa43]
class MyClass2--><rect codeLine="14" fill="#2E2E2E" filter="url(#f1dlh5269xeb93)" height="55.8359" id="MyClass2" style="stroke:#1B1B1B;stroke-width:1.5;" width="86" x="747" y="27.5"/><ellipse cx="759" cy="40.5" fill="#1A66C2" rx="8" ry="8" style="stroke:#1B1B1B;stroke-width:1.0;"/><path d="M759.6406,44.6563 Q758.75,44.6563 757.9922,44.3906 Q757.2344,44.125 756.6875,43.6094 Q756.1563,43.0938 755.8516,42.3125 Q755.5469,41.5313 755.5469,40.5156 Q755.5469,39.5625 755.8359,38.7891 Q756.125,38.0156 756.6719,37.4531 Q757.1875,36.9219 757.9609,36.6328 Q758.7344,36.3438 759.6406,36.3438 Q760.1406,36.3438 760.5469,36.3984 Q760.9531,36.4531 761.2969,36.5469 Q761.6563,36.6563 761.9531,36.7813 Q762.25,36.9063 762.4688,37.0156 L762.4688,38.9531 L762.2344,38.9531 Q762.0781,38.8281 761.8516,38.6484 Q761.625,38.4688 761.3281,38.2969 Q761.0313,38.125 760.6875,38.0078 Q760.3438,37.8906 759.9531,37.8906 Q759.5156,37.8906 759.125,38.0234 Q758.7344,38.1563 758.4063,38.4844 Q758.0938,38.7813 757.8984,39.2891 Q757.7031,39.7969 757.7031,40.5156 Q757.7031,41.2656 757.9141,41.7734 Q758.125,42.2813 758.4375,42.5625 Q758.7656,42.8594 759.1719,42.9844 Q759.5781,43.1094 759.9688,43.1094 Q760.3438,43.1094 760.7109,43 Q761.0781,42.8906 761.3906,42.6875 Q761.6563,42.5469 761.8828,42.3672 Q762.1094,42.1875 762.25,42.0625 L762.4688,42.0625 L762.4688,43.9688 Q762.1719,44.1094 761.8984,44.2266 Q761.625,44.3438 761.3125,44.4219 Q760.9219,44.5313 760.5781,44.5938 Q760.2344,44.6563 759.6406,44.6563 Z " fill="#000000"/><text fill="#FFFFFF" font-family="Verdana" font-size="11" lengthAdjust="spacingAndGlyphs" textLength="60" x="770" y="44.8748">MyClass2</text><line style="stroke:#1B1B1B;stroke-width:1.5;" x1="748" x2="832" y1="53.5" y2="53.5"/><text fill="#AAAAAA" font-family="sans-serif" font-size="11" lengthAdjust="spacingAndGlyphs" textLength="71" x="753" y="68.9189">int number = 0;</text><line style="stroke:#1B1B1B;stroke-width:1.5;" x1="748" x2="832" y1="75.3359" y2="75.3359"/><!--MD5=[0d5baa492288cd63f9e457dc269db37e]
class CExample--><rect codeLine="19" fill="#2E2E2E" filter="url(#f1dlh5269xeb93)" height="235.7031" id="CExample" style="stroke:#1B1B1B;stroke-width:1.5;" width="269" x="563.5" y="179"/><ellipse cx="662.5" cy="192" fill="#1A66C2" rx="8" ry="8" style="stroke:#1B1B1B;stroke-width:1.0;"/><path d="M663.1406,196.1563 Q662.25,196.1563 661.4922,195.8906 Q660.7344,195.625 660.1875,195.1094 Q659.6563,194.5938 659.3516,193.8125 Q659.0469,193.0313 659.0469,192.0156 Q659.0469,191.0625 659.3359,190.2891 Q659.625,189.5156 660.1719,188.9531 Q660.6875,188.4219 661.4609,188.1328 Q662.2344,187.8438 663.1406,187.8438 Q663.6406,187.8438 664.0469,187.8984 Q664.4531,187.9531 664.7969,188.0469 Q665.1563,188.1563 665.4531,188.2813 Q665.75,188.4063 665.9688,188.5156 L665.9688,190.4531 L665.7344,190.4531 Q665.5781,190.3281 665.3516,190.1484 Q665.125,189.9688 664.8281,189.7969 Q664.5313,189.625 664.1875,189.5078 Q663.8438,189.3906 663.4531,189.3906 Q663.0156,189.3906 662.625,189.5234 Q662.2344,189.6563 661.9063,189.9844 Q661.5938,190.2813 661.3984,190.7891 Q661.2031,191.2969 661.2031,192.0156 Q661.2031,192.7656 661.4141,193.2734 Q661.625,193.7813 661.9375,194.0625 Q662.2656,194.3594 662.6719,194.4844 Q663.0781,194.6094 663.4688,194.6094 Q663.8438,194.6094 664.2109,194.5 Q664.5781,194.3906 664.8906,194.1875 Q665.1563,194.0469 665.3828,193.8672 Q665.6094,193.6875 665.75,193.5625 L665.9688,193.5625 L665.9688,195.4688 Q665.6719,195.6094 665.3984,195.7266 Q665.125,195.8438 664.8125,195.9219 Q664.4219,196.0313 664.0781,196.0938 Q663.7344,196.1563 663.1406,196.1563 Z " fill="#000000"/><text fill="#FFFFFF" font-family="Verdana" font-size="11" lengthAdjust="spacingAndGlyphs" textLength="64" x="678.5" y="196.3748">CExample</text><line style="stroke:#1B1B1B;stroke-width:1.5;" x1="564.5" x2="831.5" y1="205" y2="205"/><text fill="#AAAAAA" font-family="sans-serif" font-size="11" lengthAdjust="spacingAndGlyphs" textLength="31" x="580.5" y="220.4189">public:</text><text fill="#AAAAAA" font-family="sans-serif" font-size="11" lengthAdjust="spacingAndGlyphs" textLength="0" x="583.5" y="234.2549"/><text fill="#AAAAAA" font-family="sans-serif" font-size="11" lengthAdjust="spacingAndGlyphs" textLength="0" x="583.5" y="248.0908"/><rect fill="none" height="6" style="stroke:#C82930;stroke-width:1.0;" width="6" x="571.5" y="254.5078"/><text fill="#AAAAAA" font-family="sans-serif" font-size="11" lengthAdjust="spacingAndGlyphs" textLength="197" x="580.5" y="261.9268">const char* m_question; ///&lt; the question</text><rect fill="none" height="6" style="stroke:#C82930;stroke-width:1.0;" width="6" x="571.5" y="268.3438"/><text fill="#AAAAAA" font-family="sans-serif" font-size="11" lengthAdjust="spacingAndGlyphs" textLength="176" x="580.5" y="275.7627">int m_answer;           ///&lt; the answer</text><rect fill="none" height="6" style="stroke:#C82930;stroke-width:1.0;" width="6" x="571.5" y="282.1797"/><text fill="#AAAAAA" font-family="sans-serif" font-size="11" lengthAdjust="spacingAndGlyphs" textLength="246" x="580.5" y="289.5986">CInnerClass m_innerClass; /// This is an inner class</text><line style="stroke:#1B1B1B;stroke-width:1.5;" x1="564.5" x2="831.5" y1="296.0156" y2="296.0156"/><ellipse cx="574.5" cy="307.0156" fill="#84BE84" rx="3" ry="3" style="stroke:#038048;stroke-width:1.0;"/><text fill="#AAAAAA" font-family="sans-serif" font-size="11" lengthAdjust="spacingAndGlyphs" textLength="109" x="580.5" y="311.4346">~CExample() = default;</text><ellipse cx="574.5" cy="320.8516" fill="#84BE84" rx="3" ry="3" style="stroke:#038048;stroke-width:1.0;"/><text fill="#AAAAAA" font-family="sans-serif" font-size="11" lengthAdjust="spacingAndGlyphs" textLength="97" x="580.5" y="325.2705">void DoSomething();</text><ellipse cx="574.5" cy="334.6875" fill="#84BE84" rx="3" ry="3" style="stroke:#038048;stroke-width:1.0;"/><text fill="#AAAAAA" font-family="sans-serif" font-size="11" lengthAdjust="spacingAndGlyphs" textLength="83" x="580.5" y="339.1064">void DoNothing();</text><ellipse cx="574.5" cy="348.5234" fill="#84BE84" rx="3" ry="3" style="stroke:#038048;stroke-width:1.0;"/><text fill="#AAAAAA" font-family="sans-serif" font-size="11" lengthAdjust="spacingAndGlyphs" textLength="164" x="580.5" y="352.9424">void* VeryUsefulMethod(int level);</text><ellipse cx="574.5" cy="362.3594" fill="#84BE84" rx="3" ry="3" style="stroke:#038048;stroke-width:1.0;"/><text fill="#AAAAAA" font-family="sans-serif" font-size="11" lengthAdjust="spacingAndGlyphs" textLength="117" x="580.5" y="366.7783">void DoReallyNothing(){}</text><ellipse cx="574.5" cy="376.1953" fill="#84BE84" rx="3" ry="3" style="stroke:#038048;stroke-width:1.0;"/><text fill="#AAAAAA" font-family="sans-serif" font-size="11" lengthAdjust="spacingAndGlyphs" textLength="145" x="580.5" y="380.6143">void DoReallyNothingAgain(){}</text><ellipse cx="574.5" cy="390.0313" fill="#84BE84" rx="3" ry="3" style="stroke:#038048;stroke-width:1.0;"/><text fill="#AAAAAA" font-family="sans-serif" font-size="11" lengthAdjust="spacingAndGlyphs" textLength="111" x="580.5" y="394.4502">void func1InGroup1(){}</text><ellipse cx="574.5" cy="403.8672" fill="#84BE84" rx="3" ry="3" style="stroke:#038048;stroke-width:1.0;"/><text fill="#AAAAAA" font-family="sans-serif" font-size="11" lengthAdjust="spacingAndGlyphs" textLength="111" x="580.5" y="408.2861">void func2InGroup1(){}</text><rect fill="#2E2E2E" filter="url(#f1dlh5269xeb93)" height="33.3687" style="stroke:#1B1B1B;stroke-width:1.5;" width="72" x="221" y="280.5"/><text fill="#FFFFFF" font-family="Verdana" font-size="11" lengthAdjust="spacingAndGlyphs" textLength="58" x="228" y="293.5591">Object01</text><line style="stroke:#1B1B1B;stroke-width:1.5;" x1="222" x2="292" y1="297.8687" y2="297.8687"/><rect fill="#2E2E2E" filter="url(#f1dlh5269xeb93)" height="33.3687" style="stroke:#1B1B1B;stroke-width:1.5;" width="72" x="221" y="39"/><text fill="#FFFFFF" font-family="Verdana" font-size="11" lengthAdjust="spacingAndGlyphs" textLength="58" x="228" y="52.0591">Object02</text><line style="stroke:#1B1B1B;stroke-width:1.5;" x1="222" x2="292" y1="56.3687" y2="56.3687"/><rect fill="#2E2E2E" filter="url(#f1dlh5269xeb93)" height="33.3687" style="stroke:#1B1B1B;stroke-width:1.5;" width="72" x="328" y="39"/><text fill="#FFFFFF" font-family="Verdana" font-size="11" lengthAdjust="spacingAndGlyphs" textLength="58" x="335" y="52.0591">Object03</text><line style="stroke:#1B1B1B;stroke-width:1.5;" x1="329" x2="399" y1="56.3687" y2="56.3687"/><rect fill="#2E2E2E" filter="url(#f1dlh5269xeb93)" height="33.3687" style="stroke:#1B1B1B;stroke-width:1.5;" width="72" x="435" y="39"/><text fill="#FFFFFF" font-family="Verdana" font-size="11" lengthAdjust="spacingAndGlyphs" textLength="58" x="442" y="52.0591">Object04</text><line style="stroke:#1B1B1B;stroke-width:1.5;" x1="436" x2="506" y1="56.3687" y2="56.3687"/><rect fill="#2E2E2E" filter="url(#f1dlh5269xeb93)" height="33.3687" style="stroke:#1B1B1B;stroke-width:1.5;" width="72" x="114" y="39"/><text fill="#FFFFFF" font-family="Verdana" font-size="11" lengthAdjust="spacingAndGlyphs" textLength="58" x="121" y="52.0591">Object05</text><line style="stroke:#1B1B1B;stroke-width:1.5;" x1="115" x2="185" y1="56.3687" y2="56.3687"/><rect fill="#2E2E2E" filter="url(#f1dlh5269xeb93)" height="33.3687" style="stroke:#1B1B1B;stroke-width:1.5;" width="72" x="114" y="280.5"/><text fill="#FFFFFF" font-family="Verdana" font-size="11" lengthAdjust="spacingAndGlyphs" textLength="58" x="121" y="293.5591">Object06</text><line style="stroke:#1B1B1B;stroke-width:1.5;" x1="115" x2="185" y1="297.8687" y2="297.8687"/><rect fill="#2E2E2E" filter="url(#f1dlh5269xeb93)" height="33.3687" style="stroke:#1B1B1B;stroke-width:1.5;" width="72" x="7" y="39"/><text fill="#FFFFFF" font-family="Verdana" font-size="11" lengthAdjust="spacingAndGlyphs" textLength="58" x="14" y="52.0591">Object07</text><line style="stroke:#1B1B1B;stroke-width:1.5;" x1="8" x2="78" y1="56.3687" y2="56.3687"/><rect fill="#2E2E2E" filter="url(#f1dlh5269xeb93)" height="33.3687" style="stroke:#1B1B1B;stroke-width:1.5;" width="72" x="7" y="280.5"/><text fill="#FFFFFF" font-family="Verdana" font-size="11" lengthAdjust="spacingAndGlyphs" textLength="58" x="14" y="293.5591">Object08</text><line style="stroke:#1B1B1B;stroke-width:1.5;" x1="8" x2="78" y1="297.8687" y2="297.8687"/><!--MD5=[b11e88a34527d13755a3e28b75ca7ad6]
link Object02 to Object01--><path codeLine="49" d="M257,72.21 C257,110.02 257,206.82 257,259.88 " fill="none" id="Object02-to-Object01" style="stroke:#FFFFFF;stroke-width:1.0;"/><polygon fill="none" points="264,260.23,257,280.23,250,260.23,264,260.23" style="stroke:#FFFFFF;stroke-width:1.0;"/><!--MD5=[d21c20b16b3ff22abbc2c8af84931b60]
reverse link Object03 to Object04--><path codeLine="50" d="M413.57,55.5 C420.66,55.5 427.76,55.5 434.85,55.5 " fill="none" id="Object03-backto-Object04" style="stroke:#FFFFFF;stroke-width:1.0;"/><polygon fill="#FFFFFF" points="400.36,55.5,406.36,59.5,412.36,55.5,406.36,51.5,400.36,55.5" style="stroke:#FFFFFF;stroke-width:1.0;"/><!--MD5=[ade907096602ef8d7fe19339b46bff0e]
reverse link Object05 to Object06--><path codeLine="51" d="M150,85.35 C150,136.31 150,240.58 150,280.23 " fill="none" id="Object05-backto-Object06" style="stroke:#FFFFFF;stroke-width:1.0;"/><polygon fill="#777777" points="150,72.21,146,78.21,150,84.21,154,78.21,150,72.21" style="stroke:#FFFFFF;stroke-width:1.0;"/><text fill="#BBBBBB" font-family="Verdana" font-size="11" lengthAdjust="spacingAndGlyphs" textLength="8" x="140.625" y="270.29">4</text><!--MD5=[17488501a7bed181c851ca0c615fb4f2]
link Object07 to Object08--><path codeLine="52" d="M43,72.21 C43,115.61 43,236.76 43,280.23 " fill="none" id="Object07-Object08" style="stroke:#FFFFFF;stroke-width:1.0;stroke-dasharray:7.0,7.0;"/><text fill="#BBBBBB" font-family="Verdana" font-size="11" lengthAdjust="spacingAndGlyphs" textLength="78" x="44" y="146.0591">some labels</text><!--MD5=[7362af038992886c7fbed0cf2d7429d1]
link MyClass to MyClass2--><!--MD5=[9ace11e70b3d68f4cf65b1042d09d6e8]
link MyClass to CExample--><!--MD5=[02fdfdcbc3fe9b7c1f062d0cb6bd52a6]
@startuml MyExample
!define DARKBLUE
!include style.puml

together {

class MyClass 
{
  int number
  methodOne()
  methodTwo()
  methodThree()
}

class MyClass2
{
  int number = 0;
}

class CExample
{
public:

  +~CExample() = default;
  +void DoSomething();
  +void DoNothing();
  +void* VeryUsefulMethod(int level);
  +void DoReallyNothing(){}
  +void DoReallyNothingAgain(){}
  +void func1InGroup1(){}
  +void func2InGroup1(){}

  -const char* m_question; ///< the question
  -int m_answer;           ///< the answer 
  -CInnerClass m_innerClass; /// This is an inner class
}

}

together {
object Object01
object Object02
object Object03
object Object04
object Object05
object Object06
object Object07
object Object08

Object01 <|-up- Object02
Object03 *-right- Object04
Object05 o- - "4" Object06
Object07 .. Object08 : some labels
}

@enduml

@startuml MyExample



skinparam backgroundColor 777
skinparam stereotypeCBackgroundColor 1a66c2









skinparam backgroundColor 777







skinparam circledCharacter {
  radius 8
  fontSize 11
  fontName Verdana
}

skinparam class {
    backgroundColor 2e2e2e
  borderColor 1b1b1b
    fontColor fff
  fontName Verdana
  fontSize 11
  stereotypeFontColor aaa
  stereotypeFontSize 11
    arrowColor fff
  arrowFontName Verdana
  arrowFontColor bbb
  arrowFontSize 11

  attributeFontColor aaa
  attributeFontSize 11
  attributeIconSize 11
}


skinparam actor {
    backgroundColor 1a66c2
  borderColor 002642
    fontColor fff
  fontName Verdana
  fontSize 11
  stereotypeFontColor aaa
  stereotypeFontSize 11
}

skinparam participant {
    backgroundColor 2e2e2e
  borderColor 1b1b1b
    fontColor fff
  fontName Verdana
  fontSize 11
  stereotypeFontColor aaa
  stereotypeFontSize 11
}

skinparam collections {
    backgroundColor 2e2e2e
  borderColor 1b1b1b
    fontColor fff
  fontName Verdana
  fontSize 11
  stereotypeFontColor aaa
  stereotypeFontSize 11
}

skinparam SequenceBox{
    backgroundColor 575757
  borderColor 767676
    fontColor fff
  fontName Verdana
  fontSize 11
  stereotypeFontColor aaa
  stereotypeFontSize 11
}


skinparam interface {
    backgroundColor 1a66c2
  borderColor 002642
    fontColor fff
  fontName Verdana
  fontSize 11
  stereotypeFontColor aaa
  stereotypeFontSize 11
}

skinparam component {
    backgroundColor 2e2e2e
  borderColor 1b1b1b
    fontColor fff
  fontName Verdana
  fontSize 11
  stereotypeFontColor aaa
  stereotypeFontSize 11
}

skinparam node {
    backgroundColor 2e2e2e
  borderColor 1b1b1b
    fontColor fff
  fontName Verdana
  fontSize 11
  stereotypeFontColor aaa
  stereotypeFontSize 11
}

skinparam database {
    backgroundColor 2e2e2e
  borderColor 1b1b1b
    fontColor fff
  fontName Verdana
  fontSize 11
  stereotypeFontColor aaa
  stereotypeFontSize 11
}

skinparam queue {
    backgroundColor 2e2e2e
  borderColor 1b1b1b
    fontColor fff
  fontName Verdana
  fontSize 11
  stereotypeFontColor aaa
  stereotypeFontSize 11
}


skinparam usecase {
    backgroundColor 2e2e2e
  borderColor 1b1b1b
    fontColor fff
  fontName Verdana
  fontSize 11
  stereotypeFontColor aaa
  stereotypeFontSize 11
    arrowColor fff
  arrowFontName Verdana
  arrowFontColor bbb
  arrowFontSize 11
}

skinparam activity {
    backgroundColor 2e2e2e
  borderColor 1b1b1b
    fontColor fff
  fontName Verdana
  fontSize 11
  stereotypeFontColor aaa
  stereotypeFontSize 11
    arrowColor fff
  arrowFontName Verdana
  arrowFontColor bbb
  arrowFontSize 11
}

skinparam sequence {
    fontColor fff
  fontName Verdana
  fontSize 11
  stereotypeFontColor aaa
  stereotypeFontSize 11
    arrowColor fff
  arrowFontName Verdana
  arrowFontColor bbb
  arrowFontSize 11

  lifeLineBorderColor 1a66c2
  lifeLineBackgroundColor 575757
}

skinparam boundary {
    backgroundColor 1a66c2
  borderColor 002642
    fontColor fff
  fontName Verdana
  fontSize 11
  stereotypeFontColor aaa
  stereotypeFontSize 11
}

skinparam control {
    backgroundColor 1a66c2
  borderColor 002642
    fontColor fff
  fontName Verdana
  fontSize 11
  stereotypeFontColor aaa
  stereotypeFontSize 11
}

skinparam entity {
    backgroundColor 1a66c2
  borderColor 002642
    fontColor fff
  fontName Verdana
  fontSize 11
  stereotypeFontColor aaa
  stereotypeFontSize 11
}


skinparam state {
    backgroundColor 2e2e2e
  borderColor 1b1b1b
    fontColor fff
  fontName Verdana
  fontSize 11
  stereotypeFontColor aaa
  stereotypeFontSize 11
    arrowColor fff
  arrowFontName Verdana
  arrowFontColor bbb
  arrowFontSize 11
  startColor 1a66c2
  endColor 002642
}


skinparam object {
    backgroundColor 2e2e2e
  borderColor 1b1b1b
    fontColor fff
  fontName Verdana
  fontSize 11
  stereotypeFontColor aaa
  stereotypeFontSize 11
    arrowColor fff
  arrowFontName Verdana
  arrowFontColor bbb
  arrowFontSize 11
}


skinparam note {
    backgroundColor 1a66c2
  borderColor 002642
    fontColor fff
  fontName Verdana
  fontSize 11
  stereotypeFontColor aaa
  stereotypeFontSize 11
}

skinparam cloud {
    backgroundColor 2e2e2e
  borderColor 1b1b1b
    fontColor fff
  fontName Verdana
  fontSize 11
  stereotypeFontColor aaa
  stereotypeFontSize 11
    arrowColor fff
  arrowFontName Verdana
  arrowFontColor bbb
  arrowFontSize 11
}

skinparam rectangle {
    backgroundColor 2e2e2e
  borderColor 1b1b1b
    fontColor fff
  fontName Verdana
  fontSize 11
  stereotypeFontColor aaa
  stereotypeFontSize 11
}

skinparam storage {
    backgroundColor 2e2e2e
  borderColor 1b1b1b
    fontColor fff
  fontName Verdana
  fontSize 11
  stereotypeFontColor aaa
  stereotypeFontSize 11
}


together {

class MyClass 
{
  int number
  methodOne()
  methodTwo()
  methodThree()
}

class MyClass2
{
  int number = 0;
}

class CExample
{
public:

  +~CExample() = default;
  +void DoSomething();
  +void DoNothing();
  +void* VeryUsefulMethod(int level);
  +void DoReallyNothing(){}
  +void DoReallyNothingAgain(){}
  +void func1InGroup1(){}
  +void func2InGroup1(){}

  -const char* m_question; ///< the question
  -int m_answer;           ///< the answer 
  -CInnerClass m_innerClass; /// This is an inner class
}

}

together {
object Object01
object Object02
object Object03
object Object04
object Object05
object Object06
object Object07
object Object08

Object01 <|-up- Object02
Object03 *-right- Object04
Object05 o- - "4" Object06
Object07 .. Object08 : some labels
}

@enduml

PlantUML version 1.2020.22(Sun Dec 06 10:36:27 CET 2020)
(GPL source distribution)
Java Runtime: Java(TM) SE Runtime Environment
JVM: Java HotSpot(TM) 64-Bit Server VM
Default Encoding: Cp1252
Language: de
Country: AT
--></g></svg>